<mxfile host="app.diagrams.net" modified="2024-07-10T16:59:51.152Z" agent="Mozilla/5.0 (Windows NT 10.0; Win64; x64) AppleWebKit/537.36 (KHTML, like Gecko) Chrome/126.0.0.0 Safari/537.36" etag="Yg4peAqMBe4bMCJVM2qg" version="24.6.4" type="device">
  <diagram name="Page-1" id="FpxihZ_6d4zAmAwfRXNb">
    <mxGraphModel dx="1703" dy="1030" grid="1" gridSize="10" guides="1" tooltips="1" connect="1" arrows="1" fold="1" page="1" pageScale="1" pageWidth="850" pageHeight="1100" math="0" shadow="0">
      <root>
        <mxCell id="0" />
        <mxCell id="1" parent="0" />
        <mxCell id="LaIEUkzgk_zu4MasXt5y-42" value="" style="rounded=0;whiteSpace=wrap;html=1;strokeColor=none;" parent="1" vertex="1">
          <mxGeometry x="40" y="40" width="600" height="1020" as="geometry" />
        </mxCell>
        <mxCell id="LaIEUkzgk_zu4MasXt5y-19" value="&lt;font style=&quot;font-size: 20px;&quot;&gt;roc-droid&lt;/font&gt;" style="rounded=0;whiteSpace=wrap;html=1;align=left;horizontal=1;verticalAlign=top;fontSize=17;fontStyle=2;spacingLeft=5;fillColor=#dae8fc;strokeColor=#6c8ebf;" parent="1" vertex="1">
          <mxGeometry x="80" y="180" width="520" height="600" as="geometry" />
        </mxCell>
        <mxCell id="LaIEUkzgk_zu4MasXt5y-31" style="edgeStyle=orthogonalEdgeStyle;rounded=0;orthogonalLoop=1;jettySize=auto;html=1;" parent="1" source="LaIEUkzgk_zu4MasXt5y-24" target="LaIEUkzgk_zu4MasXt5y-22" edge="1">
          <mxGeometry relative="1" as="geometry">
            <Array as="points">
              <mxPoint x="340" y="170" />
              <mxPoint x="340" y="170" />
            </Array>
          </mxGeometry>
        </mxCell>
        <mxCell id="LaIEUkzgk_zu4MasXt5y-24" value="&lt;font style=&quot;font-size: 20px;&quot;&gt;actor - user&lt;/font&gt;" style="rounded=0;whiteSpace=wrap;html=1;align=center;horizontal=1;verticalAlign=middle;fontSize=17;fontStyle=2;spacingLeft=5;" parent="1" vertex="1">
          <mxGeometry x="220" y="80" width="240" height="60" as="geometry" />
        </mxCell>
        <mxCell id="LaIEUkzgk_zu4MasXt5y-29" style="edgeStyle=orthogonalEdgeStyle;rounded=0;orthogonalLoop=1;jettySize=auto;html=1;" parent="1" source="LaIEUkzgk_zu4MasXt5y-21" target="LaIEUkzgk_zu4MasXt5y-28" edge="1">
          <mxGeometry relative="1" as="geometry" />
        </mxCell>
        <mxCell id="LaIEUkzgk_zu4MasXt5y-21" value="lib/src&lt;span style=&quot;color: rgb(51, 51, 51);&quot;&gt;/&lt;/span&gt;model&lt;br&gt;&lt;br&gt;&lt;font style=&quot;&quot;&gt;&lt;b style=&quot;font-size: 18px;&quot;&gt;Model&lt;/b&gt;&lt;br&gt;&lt;font size=&quot;1&quot; style=&quot;&quot;&gt;&lt;i style=&quot;font-size: 15px;&quot;&gt;Dart&lt;/i&gt;&lt;/font&gt;&lt;br&gt;&lt;/font&gt;" style="html=1;whiteSpace=wrap;fillColor=#ffe6cc;strokeColor=#d79b00;" parent="1" vertex="1">
          <mxGeometry x="260" y="380" width="160" height="80" as="geometry" />
        </mxCell>
        <mxCell id="LaIEUkzgk_zu4MasXt5y-23" style="edgeStyle=orthogonalEdgeStyle;rounded=0;orthogonalLoop=1;jettySize=auto;html=1;" parent="1" source="LaIEUkzgk_zu4MasXt5y-22" target="LaIEUkzgk_zu4MasXt5y-21" edge="1">
          <mxGeometry relative="1" as="geometry" />
        </mxCell>
        <mxCell id="LaIEUkzgk_zu4MasXt5y-22" value="lib/src/ui&lt;br&gt;&lt;br&gt;&lt;b&gt;&lt;font style=&quot;font-size: 18px;&quot;&gt;UI&lt;br&gt;&lt;/font&gt;&lt;/b&gt;&lt;i style=&quot;border-color: var(--border-color); font-size: 15px;&quot;&gt;Dart/Flutter&lt;/i&gt;&lt;b&gt;&lt;font style=&quot;font-size: 18px;&quot;&gt;&lt;br&gt;&lt;/font&gt;&lt;/b&gt;" style="html=1;whiteSpace=wrap;fillColor=#fff2cc;strokeColor=#d6b656;" parent="1" vertex="1">
          <mxGeometry x="260" y="260" width="160" height="80" as="geometry" />
        </mxCell>
        <mxCell id="LaIEUkzgk_zu4MasXt5y-28" value="lib/src/agent&lt;br&gt;&lt;br&gt;&lt;font style=&quot;&quot;&gt;&lt;span style=&quot;font-size: 18px;&quot;&gt;&lt;b&gt;Agent&lt;/b&gt;&lt;/span&gt;&lt;br&gt;&lt;font size=&quot;1&quot; style=&quot;&quot;&gt;&lt;i style=&quot;font-size: 15px;&quot;&gt;Dart&lt;/i&gt;&lt;/font&gt;&lt;br&gt;&lt;/font&gt;" style="html=1;whiteSpace=wrap;fillColor=#f5f5f5;strokeColor=#666666;fontColor=#333333;verticalAlign=top;" parent="1" vertex="1">
          <mxGeometry x="120" y="500" width="440" height="240" as="geometry" />
        </mxCell>
        <mxCell id="LaIEUkzgk_zu4MasXt5y-37" style="edgeStyle=orthogonalEdgeStyle;rounded=0;orthogonalLoop=1;jettySize=auto;html=1;" parent="1" source="LaIEUkzgk_zu4MasXt5y-32" target="LaIEUkzgk_zu4MasXt5y-35" edge="1">
          <mxGeometry relative="1" as="geometry" />
        </mxCell>
        <mxCell id="LaIEUkzgk_zu4MasXt5y-32" value="android&lt;br&gt;&lt;br&gt;&lt;b&gt;&lt;font style=&quot;font-size: 18px;&quot;&gt;AndroidService&lt;br&gt;&lt;/font&gt;&lt;/b&gt;&lt;i style=&quot;border-color: var(--border-color); font-size: 15px;&quot;&gt;Kotlin&lt;/i&gt;&lt;b&gt;&lt;font style=&quot;font-size: 18px;&quot;&gt;&lt;br&gt;&lt;/font&gt;&lt;/b&gt;" style="html=1;whiteSpace=wrap;fillColor=#f5f5f5;strokeColor=#666666;fontColor=#333333;" parent="1" vertex="1">
          <mxGeometry x="160" y="620" width="160" height="80" as="geometry" />
        </mxCell>
        <mxCell id="LaIEUkzgk_zu4MasXt5y-38" style="edgeStyle=orthogonalEdgeStyle;rounded=0;orthogonalLoop=1;jettySize=auto;html=1;" parent="1" source="LaIEUkzgk_zu4MasXt5y-33" target="LaIEUkzgk_zu4MasXt5y-36" edge="1">
          <mxGeometry relative="1" as="geometry" />
        </mxCell>
        <mxCell id="LaIEUkzgk_zu4MasXt5y-33" value="desktop&lt;br&gt;&lt;br&gt;&lt;b&gt;&lt;font style=&quot;font-size: 18px;&quot;&gt;DesktopService&lt;br&gt;&lt;/font&gt;&lt;/b&gt;&lt;font style=&quot;font-size: 15px;&quot;&gt;&lt;i style=&quot;&quot;&gt;Dart&lt;/i&gt;&lt;/font&gt;" style="html=1;whiteSpace=wrap;fillColor=#f5f5f5;strokeColor=#666666;fontColor=#333333;" parent="1" vertex="1">
          <mxGeometry x="360" y="620" width="160" height="80" as="geometry" />
        </mxCell>
        <mxCell id="LaIEUkzgk_zu4MasXt5y-40" style="edgeStyle=orthogonalEdgeStyle;rounded=0;orthogonalLoop=1;jettySize=auto;html=1;" parent="1" source="LaIEUkzgk_zu4MasXt5y-35" target="LaIEUkzgk_zu4MasXt5y-39" edge="1">
          <mxGeometry relative="1" as="geometry" />
        </mxCell>
        <mxCell id="LaIEUkzgk_zu4MasXt5y-35" value="&lt;font style=&quot;&quot;&gt;&lt;b&gt;&lt;font style=&quot;font-size: 18px;&quot;&gt;roc java&lt;/font&gt;&lt;/b&gt;&lt;br&gt;&lt;/font&gt;" style="html=1;whiteSpace=wrap;" parent="1" vertex="1">
          <mxGeometry x="160" y="820" width="160" height="80" as="geometry" />
        </mxCell>
        <mxCell id="LaIEUkzgk_zu4MasXt5y-41" style="edgeStyle=orthogonalEdgeStyle;rounded=0;orthogonalLoop=1;jettySize=auto;html=1;" parent="1" source="LaIEUkzgk_zu4MasXt5y-36" target="LaIEUkzgk_zu4MasXt5y-39" edge="1">
          <mxGeometry relative="1" as="geometry" />
        </mxCell>
        <mxCell id="LaIEUkzgk_zu4MasXt5y-36" value="&lt;font style=&quot;&quot;&gt;&lt;b&gt;&lt;font style=&quot;font-size: 18px;&quot;&gt;rocd&lt;/font&gt;&lt;/b&gt;&lt;br&gt;&lt;/font&gt;" style="html=1;whiteSpace=wrap;" parent="1" vertex="1">
          <mxGeometry x="360" y="820" width="160" height="80" as="geometry" />
        </mxCell>
        <mxCell id="LaIEUkzgk_zu4MasXt5y-39" value="&lt;font style=&quot;&quot;&gt;&lt;span style=&quot;font-size: 18px;&quot;&gt;&lt;b&gt;roc toolkit&lt;/b&gt;&lt;/span&gt;&lt;br&gt;&lt;/font&gt;" style="html=1;whiteSpace=wrap;" parent="1" vertex="1">
          <mxGeometry x="260" y="940" width="160" height="80" as="geometry" />
        </mxCell>
      </root>
    </mxGraphModel>
  </diagram>
</mxfile>
